<svg xmlns="http://www.w3.org/2000/svg" width="1320" height="1000" viewBox="0 0 1320 1000" role="img"><title>Cortex AI Phase 2 fictional design concept — not implemented</title><rect width="1320" height="1000" fill="#F6F7F9"/>
<text x="32" y="54" font-family="Segoe UI,Arial,sans-serif" font-size="27" fill="#142033" font-weight="600">Mobile adaptations / 390 px content frames</text>
<text x="32" y="84" font-family="Segoe UI,Arial,sans-serif" font-size="12" fill="#526174" font-weight="400">Original static artwork — responsiveness not browser-verified</text>
<rect x="32" y="120" width="390" height="798" rx="10" fill="#FFFFFF" stroke="#DDE3EA"/>
<rect x="32" y="120" width="390" height="56" rx="10" fill="#142033" stroke="none"/>
<text x="52" y="155" font-family="Segoe UI,Arial,sans-serif" font-size="21" fill="#FFFFFF" font-weight="600">cortex AI</text>
<text x="312" y="154" font-family="Segoe UI,Arial,sans-serif" font-size="13" fill="#BBC7D6" font-weight="400">Menu</text>
<text x="52" y="227" font-family="Segoe UI,Arial,sans-serif" font-size="25" fill="#142033" font-weight="600">Overview</text>
<rect x="52" y="261" width="350" height="93" rx="8" fill="#F6F7F9" stroke="#DDE3EA"/>
<text x="68" y="295" font-family="Segoe UI,Arial,sans-serif" font-size="15" fill="#142033" font-weight="400">Good afternoon, Maya.</text>
<rect x="52" y="378" width="350" height="93" rx="8" fill="#F6F7F9" stroke="#DDE3EA"/>
<text x="68" y="412" font-family="Segoe UI,Arial,sans-serif" font-size="15" fill="#142033" font-weight="400">Ask about company policies</text>
<rect x="52" y="495" width="350" height="93" rx="8" fill="#EBF5F1" stroke="#DDE3EA"/>
<text x="68" y="529" font-family="Segoe UI,Arial,sans-serif" font-size="20" fill="#142033" font-weight="600">8 documents you can read</text>
<rect x="52" y="612" width="350" height="93" rx="8" fill="#F6F7F9" stroke="#DDE3EA"/>
<text x="68" y="646" font-family="Segoe UI,Arial,sans-serif" font-size="15" fill="#142033" font-weight="400">5 applicable sources today</text>
<rect x="52" y="729" width="350" height="93" rx="8" fill="#F6F7F9" stroke="#DDE3EA"/>
<text x="68" y="763" font-family="Segoe UI,Arial,sans-serif" font-size="15" fill="#142033" font-weight="400">1 readable unresolved conflict</text>
<text x="52" y="886" font-family="Segoe UI,Arial,sans-serif" font-size="11" fill="#526174" font-weight="400">Phase 2 fictional design concept</text>
<rect x="462" y="120" width="390" height="798" rx="10" fill="#FFFFFF" stroke="#DDE3EA"/>
<rect x="462" y="120" width="390" height="56" rx="10" fill="#142033" stroke="none"/>
<text x="482" y="155" font-family="Segoe UI,Arial,sans-serif" font-size="21" fill="#FFFFFF" font-weight="600">cortex AI</text>
<text x="742" y="154" font-family="Segoe UI,Arial,sans-serif" font-size="13" fill="#BBC7D6" font-weight="400">Menu</text>
<text x="482" y="227" font-family="Segoe UI,Arial,sans-serif" font-size="25" fill="#142033" font-weight="600">Assistant</text>
<rect x="482" y="261" width="350" height="93" rx="8" fill="#F6F7F9" stroke="#DDE3EA"/>
<text x="498" y="295" font-family="Segoe UI,Arial,sans-serif" font-size="15" fill="#142033" font-weight="400">As of 9 Oct 2026 · Full-time IN</text>
<rect x="482" y="378" width="350" height="93" rx="8" fill="#F6F7F9" stroke="#DDE3EA"/>
<text x="498" y="412" font-family="Segoe UI,Arial,sans-serif" font-size="15" fill="#142033" font-weight="400">Annual leave entitlement</text>
<rect x="482" y="495" width="350" height="93" rx="8" fill="#EBF5F1" stroke="#DDE3EA"/>
<text x="498" y="529" font-family="Segoe UI,Arial,sans-serif" font-size="20" fill="#142033" font-weight="600">20 working days per year</text>
<rect x="482" y="612" width="350" height="93" rx="8" fill="#F6F7F9" stroke="#DDE3EA"/>
<text x="498" y="646" font-family="Segoe UI,Arial,sans-serif" font-size="15" fill="#142033" font-weight="400">Evidence answer · citation [1]</text>
<rect x="482" y="729" width="350" height="93" rx="8" fill="#F6F7F9" stroke="#DDE3EA"/>
<text x="498" y="763" font-family="Segoe UI,Arial,sans-serif" font-size="15" fill="#142033" font-weight="400">Open exact source passage</text>
<text x="482" y="886" font-family="Segoe UI,Arial,sans-serif" font-size="11" fill="#526174" font-weight="400">Phase 2 fictional design concept</text>
<rect x="892" y="120" width="390" height="798" rx="10" fill="#FFFFFF" stroke="#DDE3EA"/>
<rect x="892" y="120" width="390" height="56" rx="10" fill="#142033" stroke="none"/>
<text x="912" y="155" font-family="Segoe UI,Arial,sans-serif" font-size="21" fill="#FFFFFF" font-weight="600">cortex AI</text>
<text x="1172" y="154" font-family="Segoe UI,Arial,sans-serif" font-size="13" fill="#BBC7D6" font-weight="400">Menu</text>
<text x="912" y="227" font-family="Segoe UI,Arial,sans-serif" font-size="25" fill="#142033" font-weight="600">Document library</text>
<rect x="912" y="261" width="350" height="93" rx="8" fill="#F6F7F9" stroke="#DDE3EA"/>
<text x="928" y="295" font-family="Segoe UI,Arial,sans-serif" font-size="15" fill="#142033" font-weight="400">Search permitted documents</text>
<rect x="912" y="378" width="350" height="93" rx="8" fill="#F6F7F9" stroke="#DDE3EA"/>
<text x="928" y="412" font-family="Segoe UI,Arial,sans-serif" font-size="15" fill="#142033" font-weight="400">Annual leave · LEAVE-2026</text>
<rect x="912" y="495" width="350" height="93" rx="8" fill="#EBF5F1" stroke="#DDE3EA"/>
<text x="928" y="529" font-family="Segoe UI,Arial,sans-serif" font-size="20" fill="#142033" font-weight="600">Approved / current</text>
<rect x="912" y="612" width="350" height="93" rx="8" fill="#F6F7F9" stroke="#DDE3EA"/>
<text x="928" y="646" font-family="Segoe UI,Arial,sans-serif" font-size="15" fill="#142033" font-weight="400">Annual leave · LEAVE-2027</text>
<rect x="912" y="729" width="350" height="93" rx="8" fill="#F6F7F9" stroke="#DDE3EA"/>
<text x="928" y="763" font-family="Segoe UI,Arial,sans-serif" font-size="15" fill="#142033" font-weight="400">Approved / future-effective</text>
<text x="912" y="886" font-family="Segoe UI,Arial,sans-serif" font-size="11" fill="#526174" font-weight="400">Phase 2 fictional design concept</text>
</svg>
